HIERARCHY
ROOT Hips
{
	OFFSET -339.306915 540.749023 89.171944
	CHANNELS 6 Xposition Yposition Zposition Zrotation Yrotation Xrotation
	JOINT Spine
	{
		OFFSET 0.000000 2.080078 8.814247
		CHANNELS 6 Xposition Yposition Zposition Zrotation Yrotation Xrotation
		JOINT Spine1
		{
			OFFSET 0.000000 0.000000 8.844139
			CHANNELS 6 Xposition Yposition Zposition Zrotation Yrotation Xrotation
			JOINT Spine2
			{
				OFFSET 0.000000 0.000000 11.682266
				CHANNELS 6 Xposition Yposition Zposition Zrotation Yrotation Xrotation
				JOINT Spine3
				{
					OFFSET 0.000000 0.000000 11.746696
					CHANNELS 6 Xposition Yposition Zposition Zrotation Yrotation Xrotation
					JOINT Neck
					{
						OFFSET 0.000000 0.000000 17.658264
						CHANNELS 6 Xposition Yposition Zposition Zrotation Yrotation Xrotation
						JOINT Neck1
						{
							OFFSET 0.000000 0.000000 5.101517
							CHANNELS 6 Xposition Yposition Zposition Zrotation Yrotation Xrotation
							JOINT Head
							{
								OFFSET 0.000000 0.000000 5.101517
								CHANNELS 6 Xposition Yposition Zposition Zrotation Yrotation Xrotation
								JOINT HeadEnd
								{
									OFFSET 0.000000 0.000000 11.655090
									CHANNELS 6 Xposition Yposition Zposition Zrotation Yrotation Xrotation
									End Site
									{
										OFFSET 0.000000 0.000000 0.100006
									}
								}
							}
						}
					}
					JOINT RightShoulder
					{
						OFFSET -2.625397 0.000000 11.175217
						CHANNELS 6 Xposition Yposition Zposition Zrotation Yrotation Xrotation
						JOINT RightArm
						{
							OFFSET 0.000000 0.000000 10.434708
							CHANNELS 6 Xposition Yposition Zposition Zrotation Yrotation Xrotation
							JOINT RightForeArm
							{
								OFFSET 0.000000 0.000000 29.628418
								CHANNELS 6 Xposition Yposition Zposition Zrotation Yrotation Xrotation
								JOINT RightHand
								{
									OFFSET 0.000000 0.000000 22.857605
									CHANNELS 6 Xposition Yposition Zposition Zrotation Yrotation Xrotation
									JOINT RightHandThumb1
									{
										OFFSET -2.867310 -2.944275 3.959564
										CHANNELS 6 Xposition Yposition Zposition Zrotation Yrotation Xrotation
										JOINT RightHandThumb2
										{
											OFFSET 0.000000 0.000000 3.350403
											CHANNELS 6 Xposition Yposition Zposition Zrotation Yrotation Xrotation
											JOINT RightHandThumb3
											{
												OFFSET 0.000000 0.000000 3.756516
												CHANNELS 6 Xposition Yposition Zposition Zrotation Yrotation Xrotation
												JOINT RightHandThumb4
												{
													OFFSET 0.000000 0.000000 3.147339
													CHANNELS 6 Xposition Yposition Zposition Zrotation Yrotation Xrotation
													End Site
													{
														OFFSET 0.000000 0.000000 0.100006
													}
												}
											}
										}
									}
									JOINT RightHandIndex1
									{
										OFFSET -0.086761 -2.345276 10.030899
										CHANNELS 6 Xposition Yposition Zposition Zrotation Yrotation Xrotation
										JOINT RightHandIndex2
										{
											OFFSET 0.000000 0.000000 4.061096
											CHANNELS 6 Xposition Yposition Zposition Zrotation Yrotation Xrotation
											JOINT RightHandIndex3
											{
												OFFSET 0.000000 0.000000 3.248871
												CHANNELS 6 Xposition Yposition Zposition Zrotation Yrotation Xrotation
												JOINT RightHandIndex4
												{
													OFFSET 0.000000 0.000000 2.639709
													CHANNELS 6 Xposition Yposition Zposition Zrotation Yrotation Xrotation
													End Site
													{
														OFFSET 0.000000 0.000000 0.100006
													}
												}
											}
										}
									}
									JOINT RightHandMiddle1
									{
										OFFSET 0.104095 -0.006775 9.502945
										CHANNELS 6 Xposition Yposition Zposition Zrotation Yrotation Xrotation
										JOINT RightHandMiddle2
										{
											OFFSET 0.000000 0.000000 4.568726
											CHANNELS 6 Xposition Yposition Zposition Zrotation Yrotation Xrotation
											JOINT RightHandMiddle3
											{
												OFFSET 0.000000 0.000000 3.654984
												CHANNELS 6 Xposition Yposition Zposition Zrotation Yrotation Xrotation
												JOINT RightHandMiddle4
												{
													OFFSET 0.000000 0.000000 2.741241
													CHANNELS 6 Xposition Yposition Zposition Zrotation Yrotation Xrotation
													End Site
													{
														OFFSET 0.000000 0.000000 0.100006
													}
												}
											}
										}
									}
									JOINT RightHandRing1
									{
										OFFSET 0.086761 2.267456 8.921707
										CHANNELS 6 Xposition Yposition Zposition Zrotation Yrotation Xrotation
										JOINT RightHandRing2
										{
											OFFSET 0.000000 0.000000 4.061096
											CHANNELS 6 Xposition Yposition Zposition Zrotation Yrotation Xrotation
											JOINT RightHandRing3
											{
												OFFSET 0.000000 0.000000 3.654984
												CHANNELS 6 Xposition Yposition Zposition Zrotation Yrotation Xrotation
												JOINT RightHandRing4
												{
													OFFSET 0.000000 0.000000 2.741241
													CHANNELS 6 Xposition Yposition Zposition Zrotation Yrotation Xrotation
													End Site
													{
														OFFSET 0.000000 0.000000 0.100006
													}
												}
											}
										}
									}
									JOINT RightHandPinky1
									{
										OFFSET -0.173492 4.467224 7.976990
										CHANNELS 6 Xposition Yposition Zposition Zrotation Yrotation Xrotation
										JOINT RightHandPinky2
										{
											OFFSET 0.000000 0.000000 3.350403
											CHANNELS 6 Xposition Yposition Zposition Zrotation Yrotation Xrotation
											JOINT RightHandPinky3
											{
												OFFSET 0.000000 0.000000 2.842758
												CHANNELS 6 Xposition Yposition Zposition Zrotation Yrotation Xrotation
												JOINT RightHandPinky4
												{
													OFFSET 0.000000 0.000000 2.639709
													CHANNELS 6 Xposition Yposition Zposition Zrotation Yrotation Xrotation
													End Site
													{
														OFFSET 0.000000 0.000000 0.100006
													}
												}
											}
										}
									}
									JOINT RightForeArmEnd
									{
										OFFSET 0.000000 0.000000 0.000000
										CHANNELS 6 Xposition Yposition Zposition Zrotation Yrotation Xrotation
										End Site
										{
											OFFSET 0.000000 0.000000 0.100006
										}
									}
								}
								JOINT RightArmEnd
								{
									OFFSET 0.000000 0.000000 0.000000
									CHANNELS 6 Xposition Yposition Zposition Zrotation Yrotation Xrotation
									End Site
									{
										OFFSET 0.000000 0.000000 0.100006
									}
								}
							}
						}
					}
					JOINT LeftShoulder
					{
						OFFSET 2.625397 0.000000 11.175217
						CHANNELS 6 Xposition Yposition Zposition Zrotation Yrotation Xrotation
						JOINT LeftArm
						{
							OFFSET 0.000000 0.000000 10.813629
							CHANNELS 6 Xposition Yposition Zposition Zrotation Yrotation Xrotation
							JOINT LeftForeArm
							{
								OFFSET 0.000000 0.000000 28.724777
								CHANNELS 6 Xposition Yposition Zposition Zrotation Yrotation Xrotation
								JOINT LeftHand
								{
									OFFSET 0.644379 0.328857 25.716171
									CHANNELS 6 Xposition Yposition Zposition Zrotation Yrotation Xrotation
									JOINT LeftHandThumb1
									{
										OFFSET 2.867310 -2.944275 3.959564
										CHANNELS 6 Xposition Yposition Zposition Zrotation Yrotation Xrotation
										JOINT LeftHandThumb2
										{
											OFFSET 0.000000 0.000000 3.350403
											CHANNELS 6 Xposition Yposition Zposition Zrotation Yrotation Xrotation
											JOINT LeftHandThumb3
											{
												OFFSET 0.000000 0.000000 3.756516
												CHANNELS 6 Xposition Yposition Zposition Zrotation Yrotation Xrotation
												JOINT LeftHandThumb4
												{
													OFFSET 0.000000 0.000000 3.100006
													CHANNELS 6 Xposition Yposition Zposition Zrotation Yrotation Xrotation
													End Site
													{
														OFFSET 0.000000 0.000000 0.100006
													}
												}
											}
										}
									}
									JOINT LeftHandIndex1
									{
										OFFSET 0.086761 -2.345276 10.030899
										CHANNELS 6 Xposition Yposition Zposition Zrotation Yrotation Xrotation
										JOINT LeftHandIndex2
										{
											OFFSET 0.000000 0.000000 4.061096
											CHANNELS 6 Xposition Yposition Zposition Zrotation Yrotation Xrotation
											JOINT LeftHandIndex3
											{
												OFFSET 0.000000 0.000000 3.248871
												CHANNELS 6 Xposition Yposition Zposition Zrotation Yrotation Xrotation
												JOINT LeftHandIndex4
												{
													OFFSET 0.000000 0.000000 2.639709
													CHANNELS 6 Xposition Yposition Zposition Zrotation Yrotation Xrotation
													End Site
													{
														OFFSET 0.000000 0.000000 0.100006
													}
												}
											}
										}
									}
									JOINT LeftHandMiddle1
									{
										OFFSET -0.104095 -0.006775 9.502945
										CHANNELS 6 Xposition Yposition Zposition Zrotation Yrotation Xrotation
										JOINT LeftHandMiddle2
										{
											OFFSET 0.000000 0.000000 4.568726
											CHANNELS 6 Xposition Yposition Zposition Zrotation Yrotation Xrotation
											JOINT LeftHandMiddle3
											{
												OFFSET 0.000000 0.000000 3.654984
												CHANNELS 6 Xposition Yposition Zposition Zrotation Yrotation Xrotation
												JOINT LeftHandMiddle4
												{
													OFFSET 0.000000 0.000000 2.741241
													CHANNELS 6 Xposition Yposition Zposition Zrotation Yrotation Xrotation
													End Site
													{
														OFFSET 0.000000 0.000000 0.100006
													}
												}
											}
										}
									}
									JOINT LeftHandRing1
									{
										OFFSET -0.086761 2.267456 8.921707
										CHANNELS 6 Xposition Yposition Zposition Zrotation Yrotation Xrotation
										JOINT LeftHandRing2
										{
											OFFSET 0.000000 0.000000 4.061096
											CHANNELS 6 Xposition Yposition Zposition Zrotation Yrotation Xrotation
											JOINT LeftHandRing3
											{
												OFFSET 0.000000 0.000000 3.654984
												CHANNELS 6 Xposition Yposition Zposition Zrotation Yrotation Xrotation
												JOINT LeftHandRing4
												{
													OFFSET 0.000000 0.000000 2.741241
													CHANNELS 6 Xposition Yposition Zposition Zrotation Yrotation Xrotation
													End Site
													{
														OFFSET 0.000000 0.000000 0.100006
													}
												}
											}
										}
									}
									JOINT LeftHandPinky1
									{
										OFFSET 0.173492 4.467224 7.976990
										CHANNELS 6 Xposition Yposition Zposition Zrotation Yrotation Xrotation
										JOINT LeftHandPinky2
										{
											OFFSET 0.000000 0.000000 3.350403
											CHANNELS 6 Xposition Yposition Zposition Zrotation Yrotation Xrotation
											JOINT LeftHandPinky3
											{
												OFFSET 0.000000 0.000000 2.842758
												CHANNELS 6 Xposition Yposition Zposition Zrotation Yrotation Xrotation
												JOINT LeftHandPinky4
												{
													OFFSET 0.000000 0.000000 2.639709
													CHANNELS 6 Xposition Yposition Zposition Zrotation Yrotation Xrotation
													End Site
													{
														OFFSET 0.000000 0.000000 0.100006
													}
												}
											}
										}
									}
									JOINT LeftForeArmEnd
									{
										OFFSET 0.000000 0.000000 0.000000
										CHANNELS 6 Xposition Yposition Zposition Zrotation Yrotation Xrotation
										End Site
										{
											OFFSET 0.000000 0.000000 0.100006
										}
									}
								}
								JOINT LeftArmEnd
								{
									OFFSET 0.000000 0.000000 0.000000
									CHANNELS 6 Xposition Yposition Zposition Zrotation Yrotation Xrotation
									End Site
									{
										OFFSET 0.000000 0.000000 0.100006
									}
								}
							}
						}
					}
				}
			}
		}
	}
	JOINT RightUpLeg
	{
		OFFSET -11.289948 0.000000 0.000000
		CHANNELS 6 Xposition Yposition Zposition Zrotation Yrotation Xrotation
		JOINT RightLeg
		{
			OFFSET 0.000000 0.000000 -38.200329
			CHANNELS 6 Xposition Yposition Zposition Zrotation Yrotation Xrotation
			JOINT RightFoot
			{
				OFFSET 0.000000 0.000000 -39.900856
				CHANNELS 6 Xposition Yposition Zposition Zrotation Yrotation Xrotation
				JOINT RightToeBase
				{
					OFFSET 0.000000 -15.261658 0.000001
					CHANNELS 6 Xposition Yposition Zposition Zrotation Yrotation Xrotation
					JOINT RightToeBaseEnd
					{
						OFFSET 0.000000 -7.370728 0.000001
						CHANNELS 6 Xposition Yposition Zposition Zrotation Yrotation Xrotation
						End Site
						{
							OFFSET 0.000000 0.000000 0.100000
						}
					}
				}
				JOINT RightLegEnd
				{
					OFFSET 0.000000 0.000000 0.000000
					CHANNELS 6 Xposition Yposition Zposition Zrotation Yrotation Xrotation
					End Site
					{
						OFFSET 0.000000 0.000000 0.100000
					}
				}
			}
			JOINT RightUpLegEnd
			{
				OFFSET 0.000000 0.000000 0.000000
				CHANNELS 6 Xposition Yposition Zposition Zrotation Yrotation Xrotation
				End Site
				{
					OFFSET 0.000000 0.000000 0.099998
				}
			}
		}
	}
	JOINT LeftUpLeg
	{
		OFFSET 11.315674 0.000000 0.000000
		CHANNELS 6 Xposition Yposition Zposition Zrotation Yrotation Xrotation
		JOINT LeftLeg
		{
			OFFSET 0.000000 0.000000 -38.200329
			CHANNELS 6 Xposition Yposition Zposition Zrotation Yrotation Xrotation
			JOINT LeftFoot
			{
				OFFSET 0.000000 0.000000 -39.900856
				CHANNELS 6 Xposition Yposition Zposition Zrotation Yrotation Xrotation
				JOINT LeftToeBase
				{
					OFFSET 0.000000 -15.261658 0.000001
					CHANNELS 6 Xposition Yposition Zposition Zrotation Yrotation Xrotation
					JOINT LeftToeBaseEnd
					{
						OFFSET 0.000000 -7.539978 0.000001
						CHANNELS 6 Xposition Yposition Zposition Zrotation Yrotation Xrotation
						End Site
						{
							OFFSET 0.000000 0.000000 0.100000
						}
					}
				}
				JOINT LeftLegEnd
				{
					OFFSET 0.000000 0.000000 0.000000
					CHANNELS 6 Xposition Yposition Zposition Zrotation Yrotation Xrotation
					End Site
					{
						OFFSET 0.000000 0.000000 0.100000
					}
				}
			}
			JOINT LeftUpLegEnd
			{
				OFFSET 0.000000 0.000000 0.000000
				CHANNELS 6 Xposition Yposition Zposition Zrotation Yrotation Xrotation
				End Site
				{
					OFFSET 0.000000 0.000000 0.099998
				}
			}
		}
	}
}
MOTION
Frames: 2
Frame Time: 0.016667
8.059784 -51.399536 88.325668 -78.162028 -2.351877 -2.546164 0.000006 2.080073 8.814263 0.211414 0.175033 6.104511 0.000010 -0.000011 8.844153 0.193164 -1.085297 3.293041 0.000010 -0.000008 11.682275 4.857695 0.597850 2.564739 -0.000002 0.000009 11.746683 1.709456 -0.602120 0.653415 -0.000004 -0.000013 17.658241 25.076922 12.239951 4.661574 0.000034 -0.000008 5.101540 21.547507 -2.408974 -7.740775 0.000001 -0.000025 5.101549 1.231460 2.792083 -14.075297 -0.000015 -0.000005 11.655083 0.000001 -0.000000 0.000001 -2.625397 -0.000002 11.175220 12.443499 -79.029762 0.076051 -0.000008 0.000000 10.434700 22.327356 -46.690606 5.080115 0.000005 -0.000011 29.628429 13.298992 0.484626 92.566508 -0.000019 -0.000038 22.857578 38.769701 18.973065 0.073123 -2.867302 -2.944260 3.959549 32.872877 -12.350680 59.653424 0.000013 -0.000015 3.350405 -2.117033 1.968057 -4.171865 0.000011 -0.000013 3.756524 -1.454497 1.383390 -2.882054 0.000005 -0.000006 3.147347 0.000001 -0.000001 -0.000000 -0.086766 -2.345284 10.030930 13.695957 23.823442 29.367570 -0.000009 0.000030 4.061116 -0.588231 -0.000003 0.000103 -0.000005 0.000024 3.248878 -0.293933 -0.000003 0.010297 -0.000007 0.000007 2.639716 0.000000 -0.000000 -0.000001 0.104094 -0.006771 9.502975 8.873656 25.929784 19.121852 -0.000000 -0.000000 4.568736 -0.587163 -0.000140 -0.000566 -0.000005 -0.000080 3.654983 -0.254150 -0.000002 0.002684 -0.000013 -0.000000 2.741259 0.000000 0.000002 0.000000 0.086767 2.267507 8.921711 -0.146945 25.954673 4.953272 0.000001 0.000009 4.061085 1.172136 0.000000 -0.089183 -0.000008 -0.000022 3.654994 0.133790 0.000002 -0.069567 -0.000009 -0.000005 2.741240 0.000001 -0.000002 -0.000004 -0.173492 4.467236 7.976982 -9.744039 21.147514 -8.547534 0.000013 -0.000009 3.350416 2.018562 0.000004 -0.000234 -0.000011 0.000013 2.842790 0.011891 -0.000003 0.002920 -0.000001 -0.000064 2.639704 0.000000 0.000000 -0.000002 -0.000009 -0.000001 -0.000001 0.000000 -0.000000 -0.000003 -0.000013 0.000004 0.000007 -0.000001 0.000000 -0.000003 2.625380 0.000000 11.175217 -10.445035 85.879063 -0.608604 0.000008 -0.000010 10.813652 -39.093971 47.349945 -30.724803 0.000027 0.000053 28.724714 -17.122661 -0.888155 101.619186 0.644363 0.328819 25.716141 -24.686877 -27.670302 19.261618 2.867302 -2.944275 3.959518 -32.175324 14.394982 56.080583 -0.000017 -0.000011 3.350433 6.416747 -5.188113 -12.107219 0.000002 -0.000023 3.756523 4.337843 -3.748704 -8.340387 0.000004 0.000004 3.100014 -0.000001 -0.000001 0.000001 0.086758 -2.345249 10.030907 6.323513 -13.614169 16.541851 0.000009 -0.000023 4.061085 -0.572593 0.027966 -0.000409 -0.000014 0.000011 3.248886 -0.069702 -0.015639 0.000360 0.000011 0.000004 2.639700 0.000000 -0.000000 0.000001 -0.104092 -0.006786 9.502945 1.467752 -12.082393 11.415066 -0.000003 0.000026 4.568730 -0.642798 -0.000012 -0.000462 -0.000002 -0.000015 3.654971 -0.236064 0.000017 -0.010162 -0.000005 -0.000058 2.741244 0.000000 -0.000000 0.000000 -0.086750 2.267432 8.921711 -6.578092 -10.864136 5.332240 -0.000014 -0.000011 4.061079 1.147513 0.000299 -0.000636 0.000017 -0.000037 3.655012 0.146821 0.000015 0.003483 0.000034 -0.000025 2.741259 0.000002 -0.000001 -0.000003 0.173500 4.467228 7.976983 -15.147517 -10.918295 0.373097 0.000011 0.000008 3.350399 2.177278 0.000123 -0.000002 0.000001 -0.000013 2.842763 0.150398 0.000001 0.000190 0.000011 0.000011 2.639697 -0.000002 0.000000 0.000000 0.000023 0.000017 0.000002 -0.000002 -0.000000 0.000000 -0.000019 0.000013 0.000015 -0.000001 0.000002 0.000002 -11.289958 -0.000006 -0.000000 9.752192 -0.729597 -4.055188 -0.000005 0.000030 -38.200310 0.190266 -0.093801 26.244877 0.000004 -0.000015 -39.900848 -10.421225 4.325423 12.095840 -0.000005 -15.261695 0.000005 -0.435998 0.814704 -21.672691 0.000002 -7.370660 0.000001 -0.000001 0.000000 -0.000000 0.000004 0.000058 -0.000002 0.000001 0.000000 -0.000001 -0.000009 0.000017 -0.000000 -0.000002 -0.000001 0.000001 11.315644 0.000034 0.000009 8.676895 0.242036 -16.853239 -0.000027 -0.000019 -38.200291 0.237274 -0.240074 45.336275 -0.000046 -0.000006 -39.900856 13.238367 5.145724 17.673456 0.000003 -15.261679 -0.000000 -0.805838 -0.819444 -22.221969 0.000004 -7.539926 0.000002 0.000002 -0.000000 -0.000000 0.000041 0.000000 0.000006 -0.000000 0.000000 0.000002 -0.000025 0.000057 0.000000 0.000001 -0.000000 0.000001 
7.051605 -51.641724 89.000877 -78.085366 -2.556393 -2.097322 0.000015 2.080077 8.814252 0.439180 0.145641 5.599570 -0.000007 -0.000023 8.844152 0.380664 -0.961123 3.156229 0.000029 0.000006 11.682268 5.815827 0.749618 2.256800 -0.000014 0.000011 11.746698 2.170249 -0.628780 0.417895 -0.000004 -0.000005 17.658279 24.579172 11.482501 5.044677 -0.000031 0.000010 5.101514 20.923543 -2.589472 -7.330897 0.000002 -0.000009 5.101566 1.094292 2.713959 -14.062923 0.000008 0.000003 11.655094 -0.000001 -0.000000 0.000001 -2.625412 0.000002 11.175229 12.655347 -78.063448 -0.001621 0.000008 0.000015 10.434710 24.503913 -43.850788 4.307872 -0.000036 -0.000034 29.628441 13.470882 0.432399 93.802348 -0.000023 -0.000065 22.857573 34.218032 19.490122 -0.318781 -2.867325 -2.944244 3.959518 32.872772 -12.350720 59.654483 -0.000005 -0.000009 3.350397 -2.117107 1.967966 -4.174081 0.000030 0.000019 3.756521 -1.454406 1.383477 -2.881020 0.000016 -0.000000 3.147343 -0.000001 0.000000 0.000000 -0.086761 -2.345268 10.030899 13.685980 23.756593 28.996414 -0.000000 0.000028 4.061076 -0.588527 0.044235 -0.000350 0.000015 0.000006 3.248873 -0.291188 -0.024554 0.010357 -0.000003 0.000014 2.639717 -0.000001 0.000001 0.000000 0.104102 -0.006779 9.502975 8.842948 25.803720 18.925657 0.000007 -0.000035 4.568728 -0.585941 -0.000296 -0.000562 0.000001 -0.000059 3.654988 -0.251143 -0.000008 0.002697 -0.000003 -0.000003 2.741264 0.000000 -0.000000 0.000001 0.086761 2.267458 8.921700 -0.183700 25.739745 4.984360 0.000009 0.000014 4.061093 1.170204 0.027758 -0.083794 0.000004 0.000019 3.654989 0.132278 -0.014725 -0.065857 0.000002 0.000010 2.741252 -0.000001 -0.000002 0.000001 -0.173492 4.467211 7.976967 -9.781721 20.970989 -8.218797 0.000042 -0.000042 3.350420 2.018632 0.000003 -0.000224 0.000008 0.000022 2.842783 0.011938 -0.000003 0.002876 -0.000000 -0.000002 2.639712 0.000000 0.000002 -0.000001 -0.000000 0.000001 -0.000031 -0.000001 0.000002 0.000002 -0.000007 0.000010 0.000015 -0.000000 0.000001 -0.000001 2.625410 0.000014 11.175243 -10.180855 84.920930 -0.609045 0.000023 -0.000021 10.813652 -36.538152 44.313543 -27.930997 -0.000011 0.000015 28.724796 -17.177384 -0.988731 102.142685 0.644371 0.328850 25.716141 -23.858489 -28.059648 19.123896 2.867310 -2.944336 3.959557 -32.175317 14.394972 56.080593 0.000011 0.000027 3.350412 6.416747 -5.188092 -12.107280 -0.000010 -0.000025 3.756521 4.337828 -3.748731 -8.340348 0.000000 0.000001 3.100000 -0.000001 -0.000001 -0.000000 0.086758 -2.345310 10.030869 6.286799 -13.864444 16.273696 0.000014 0.000007 4.061099 -0.572766 0.096011 -0.001094 -0.000014 -0.000002 3.248888 -0.069897 -0.053262 0.000407 0.000003 0.000000 2.639731 0.000000 0.000000 0.000001 -0.104095 -0.006783 9.502945 1.430926 -12.299460 11.275567 -0.000012 -0.000003 4.568730 -0.641945 -0.000012 -0.000456 -0.000010 0.000014 3.654966 -0.233550 -0.000004 -0.010272 0.000003 -0.000013 2.741231 0.000001 0.000000 0.000000 -0.086754 2.267463 8.921684 -6.617498 -11.068466 5.182882 0.000013 -0.000012 4.061123 1.146299 0.000305 -0.000634 -0.000002 0.000007 3.654969 0.145944 0.000015 0.003402 0.000007 0.000015 2.741241 -0.000002 0.000000 -0.000002 0.173496 4.467181 7.976978 -15.180097 -11.157327 -0.030801 0.000005 0.000005 3.350425 2.174430 0.000220 0.000001 -0.000037 0.000012 2.842756 0.147969 0.000003 0.000183 0.000005 0.000003 2.639720 -0.000003 0.000001 0.000000 -0.000031 -0.000012 0.000021 0.000001 -0.000000 -0.000003 -0.000014 -0.000034 0.000018 0.000004 -0.000002 0.000001 -11.289957 -0.000004 -0.000005 9.837656 -0.595281 -1.962607 -0.000030 0.000043 -38.200321 0.131897 -0.054852 22.577829 0.000011 0.000044 -39.900837 -10.650726 4.387124 14.133226 -0.000010 -15.261662 -0.000016 -0.586923 0.883420 -22.575852 -0.000005 -7.370660 -0.000001 -0.000001 -0.000000 -0.000000 -0.000008 0.000060 -0.000001 0.000000 -0.000001 -0.000003 0.000001 0.000010 0.000003 -0.000001 0.000000 -0.000000 11.315669 0.000032 -0.000006 9.401227 1.704522 -15.478221 -0.000027 0.000084 -38.200279 0.601172 -0.478063 38.490855 -0.000017 0.000020 -39.900848 11.770147 5.833764 18.862373 0.000000 -15.261672 0.000012 -1.153484 -0.703223 -23.768649 0.000033 -7.539979 0.000001 0.000000 0.000001 -0.000003 -0.000006 -0.000045 0.000001 -0.000003 0.000002 0.000000 -0.000028 0.000047 -0.000000 0.000002 0.000000 -0.000000 
